<mxfile host="app.diagrams.net" modified="2021-07-12T03:25:23.513Z" agent="5.0 (Windows NT 10.0; Win64; x64) AppleWebKit/537.36 (KHTML, like Gecko) Chrome/91.0.4472.124 Safari/537.36" etag="nsRlPvpgktS04TjnLzaJ" version="14.8.5" type="github">
  <diagram id="TcAuEoyjwYY_18S0YUZ-" name="Page-1">
    <mxGraphModel dx="1038" dy="489" grid="1" gridSize="10" guides="1" tooltips="1" connect="1" arrows="1" fold="1" page="1" pageScale="1" pageWidth="827" pageHeight="1169" math="0" shadow="0">
      <root>
        <mxCell id="0" />
        <mxCell id="1" parent="0" />
        <mxCell id="tXev2GKrcA5CCaMBDUZN-13" value="" style="rounded=0;whiteSpace=wrap;html=1;" vertex="1" parent="1">
          <mxGeometry x="120" y="50" width="500" height="460" as="geometry" />
        </mxCell>
        <mxCell id="tXev2GKrcA5CCaMBDUZN-9" style="edgeStyle=orthogonalEdgeStyle;rounded=0;orthogonalLoop=1;jettySize=auto;html=1;exitX=0.5;exitY=0.5;exitDx=0;exitDy=0;exitPerimeter=0;entryX=0;entryY=0.5;entryDx=0;entryDy=0;" edge="1" parent="1" source="tXev2GKrcA5CCaMBDUZN-1" target="tXev2GKrcA5CCaMBDUZN-5">
          <mxGeometry relative="1" as="geometry" />
        </mxCell>
        <mxCell id="tXev2GKrcA5CCaMBDUZN-10" style="edgeStyle=orthogonalEdgeStyle;rounded=0;orthogonalLoop=1;jettySize=auto;html=1;exitX=0.5;exitY=0.5;exitDx=0;exitDy=0;exitPerimeter=0;entryX=0;entryY=0.5;entryDx=0;entryDy=0;" edge="1" parent="1" source="tXev2GKrcA5CCaMBDUZN-1" target="tXev2GKrcA5CCaMBDUZN-4">
          <mxGeometry relative="1" as="geometry" />
        </mxCell>
        <mxCell id="tXev2GKrcA5CCaMBDUZN-20" style="edgeStyle=orthogonalEdgeStyle;rounded=0;orthogonalLoop=1;jettySize=auto;html=1;exitX=0.5;exitY=0.5;exitDx=0;exitDy=0;exitPerimeter=0;entryX=0;entryY=0.5;entryDx=0;entryDy=0;" edge="1" parent="1" source="tXev2GKrcA5CCaMBDUZN-1" target="tXev2GKrcA5CCaMBDUZN-3">
          <mxGeometry relative="1" as="geometry" />
        </mxCell>
        <mxCell id="tXev2GKrcA5CCaMBDUZN-1" value="어린이" style="shape=umlActor;verticalLabelPosition=bottom;verticalAlign=top;html=1;" vertex="1" parent="1">
          <mxGeometry x="60" y="285" width="30" height="60" as="geometry" />
        </mxCell>
        <mxCell id="tXev2GKrcA5CCaMBDUZN-11" style="edgeStyle=orthogonalEdgeStyle;rounded=0;orthogonalLoop=1;jettySize=auto;html=1;exitX=0.5;exitY=0.5;exitDx=0;exitDy=0;exitPerimeter=0;entryX=1;entryY=0.5;entryDx=0;entryDy=0;" edge="1" parent="1" source="tXev2GKrcA5CCaMBDUZN-2" target="tXev2GKrcA5CCaMBDUZN-6">
          <mxGeometry relative="1" as="geometry" />
        </mxCell>
        <mxCell id="tXev2GKrcA5CCaMBDUZN-2" value="관리자" style="shape=umlActor;verticalLabelPosition=bottom;verticalAlign=top;html=1;" vertex="1" parent="1">
          <mxGeometry x="654" y="285" width="30" height="60" as="geometry" />
        </mxCell>
        <mxCell id="tXev2GKrcA5CCaMBDUZN-3" value="시험 선택" style="ellipse;whiteSpace=wrap;html=1;" vertex="1" parent="1">
          <mxGeometry x="220" y="160" width="140" height="70" as="geometry" />
        </mxCell>
        <mxCell id="tXev2GKrcA5CCaMBDUZN-7" style="edgeStyle=orthogonalEdgeStyle;rounded=0;orthogonalLoop=1;jettySize=auto;html=1;exitX=0.5;exitY=0;exitDx=0;exitDy=0;entryX=0.5;entryY=1;entryDx=0;entryDy=0;" edge="1" parent="1" source="tXev2GKrcA5CCaMBDUZN-4" target="tXev2GKrcA5CCaMBDUZN-3">
          <mxGeometry relative="1" as="geometry" />
        </mxCell>
        <mxCell id="tXev2GKrcA5CCaMBDUZN-4" value="시험" style="ellipse;whiteSpace=wrap;html=1;" vertex="1" parent="1">
          <mxGeometry x="220" y="280" width="140" height="70" as="geometry" />
        </mxCell>
        <mxCell id="tXev2GKrcA5CCaMBDUZN-22" style="edgeStyle=orthogonalEdgeStyle;rounded=0;orthogonalLoop=1;jettySize=auto;html=1;exitX=0.5;exitY=0;exitDx=0;exitDy=0;entryX=0.5;entryY=1;entryDx=0;entryDy=0;" edge="1" parent="1" source="tXev2GKrcA5CCaMBDUZN-5" target="tXev2GKrcA5CCaMBDUZN-4">
          <mxGeometry relative="1" as="geometry" />
        </mxCell>
        <mxCell id="tXev2GKrcA5CCaMBDUZN-5" value="채점 결과 확인" style="ellipse;whiteSpace=wrap;html=1;" vertex="1" parent="1">
          <mxGeometry x="220" y="400" width="140" height="70" as="geometry" />
        </mxCell>
        <mxCell id="tXev2GKrcA5CCaMBDUZN-6" value="문제 CRUD" style="ellipse;whiteSpace=wrap;html=1;" vertex="1" parent="1">
          <mxGeometry x="414" y="280" width="140" height="70" as="geometry" />
        </mxCell>
        <mxCell id="tXev2GKrcA5CCaMBDUZN-8" value="&amp;lt;&amp;lt; include &amp;gt;&amp;gt;" style="text;html=1;strokeColor=none;fillColor=none;align=center;verticalAlign=middle;whiteSpace=wrap;rounded=0;" vertex="1" parent="1">
          <mxGeometry x="300" y="250" width="80" height="20" as="geometry" />
        </mxCell>
        <mxCell id="tXev2GKrcA5CCaMBDUZN-14" value="*" style="text;html=1;strokeColor=none;fillColor=none;align=center;verticalAlign=middle;whiteSpace=wrap;rounded=0;" vertex="1" parent="1">
          <mxGeometry x="80" y="300" width="40" height="20" as="geometry" />
        </mxCell>
        <mxCell id="tXev2GKrcA5CCaMBDUZN-15" value="*" style="text;html=1;strokeColor=none;fillColor=none;align=center;verticalAlign=middle;whiteSpace=wrap;rounded=0;" vertex="1" parent="1">
          <mxGeometry x="620" y="300" width="40" height="20" as="geometry" />
        </mxCell>
        <mxCell id="tXev2GKrcA5CCaMBDUZN-16" value="*" style="text;html=1;strokeColor=none;fillColor=none;align=center;verticalAlign=middle;whiteSpace=wrap;rounded=0;" vertex="1" parent="1">
          <mxGeometry x="180" y="300" width="40" height="20" as="geometry" />
        </mxCell>
        <mxCell id="tXev2GKrcA5CCaMBDUZN-17" value="*" style="text;html=1;strokeColor=none;fillColor=none;align=center;verticalAlign=middle;whiteSpace=wrap;rounded=0;" vertex="1" parent="1">
          <mxGeometry x="180" y="420" width="40" height="20" as="geometry" />
        </mxCell>
        <mxCell id="tXev2GKrcA5CCaMBDUZN-18" value="*" style="text;html=1;strokeColor=none;fillColor=none;align=center;verticalAlign=middle;whiteSpace=wrap;rounded=0;" vertex="1" parent="1">
          <mxGeometry x="554" y="300" width="40" height="20" as="geometry" />
        </mxCell>
        <mxCell id="tXev2GKrcA5CCaMBDUZN-19" value="&lt;font style=&quot;font-size: 20px&quot;&gt;Level test with AI&lt;/font&gt;" style="text;html=1;strokeColor=none;fillColor=none;align=center;verticalAlign=middle;whiteSpace=wrap;rounded=0;" vertex="1" parent="1">
          <mxGeometry x="300" y="70" width="140" height="60" as="geometry" />
        </mxCell>
        <mxCell id="tXev2GKrcA5CCaMBDUZN-23" value="&amp;lt;&amp;lt; include &amp;gt;&amp;gt;" style="text;html=1;strokeColor=none;fillColor=none;align=center;verticalAlign=middle;whiteSpace=wrap;rounded=0;" vertex="1" parent="1">
          <mxGeometry x="300" y="370" width="80" height="20" as="geometry" />
        </mxCell>
        <mxCell id="tXev2GKrcA5CCaMBDUZN-24" value="*" style="text;html=1;strokeColor=none;fillColor=none;align=center;verticalAlign=middle;whiteSpace=wrap;rounded=0;" vertex="1" parent="1">
          <mxGeometry x="180" y="180" width="40" height="20" as="geometry" />
        </mxCell>
      </root>
    </mxGraphModel>
  </diagram>
</mxfile>
